# xmcd
#
# Track frame offsets: 
#        150
#        17741
#        37379
#        55411
#        73271
#        87494
#        102410
#        120411
#        134215
#        150171
#        166341
#        185187
#        207158
#        223678
#        237980
#        254704
#
# Disc length: 3642 seconds
#
# Revision: 0
# Processed by: cddbd v1.5.2PL0 Copyright (c) Steve Scherf et al.
# Submitted via: ExactAudioCopy v1.0b3
#
DISCID=fa0e3810
DTITLE=リッキー&960ポンド - 抱きしめて (紙ジャケット仕様) GRCL-6014
DYEAR=1900
DGENRE=Blues
TTITLE0=抱きしめて
TTITLE1=別れの詩
TTITLE2=告白・アイ・ラブ・ユー
TTITLE3=さようならは云わないで
TTITLE4=メモリアル・カントリー
TTITLE5=しのび逢い
TTITLE6=別れの朝
TTITLE7=途中下車
TTITLE8=エアーポート
TTITLE9=置きざりの愛
TTITLE10=全てを賭けて
TTITLE11=東宝映画~獄門島~より 愛のテーマ
TTITLE12=夢物語 (Bonus Track)
TTITLE13=バイ・バイ・シティ (Bonus Track)
TTITLE14=帰らないで (Bonus Track)
TTITLE15=リップスティックのテーマ(インスト)  (Bonus Track)
EXTD=
EXTT0=
EXTT1=
EXTT2=
EXTT3=
EXTT4=
EXTT5=
EXTT6=
EXTT7=
EXTT8=
EXTT9=
EXTT10=
EXTT11=
EXTT12=
EXTT13=
EXTT14=
EXTT15=
PLAYORDER=
